<svg viewBox="0 0 760 260" xmlns="http://www.w3.org/2000/svg" font-family="Inter, ui-sans-serif, system-ui, sans-serif">
  <rect width="760" height="260" fill="#f6f8fb"/>

  <!-- Title -->
  <text x="380" y="34" text-anchor="middle" font-size="13" font-weight="800" fill="#0c1e48" letter-spacing="0.06em">EXPORTABWICKLUNG · PROZESSABLAUF</text>

  <!-- Step 1 -->
  <rect x="20" y="60" width="108" height="100" rx="6" fill="#ffffff" stroke="#d3dae8" stroke-width="1.5"/>
  <rect x="20" y="60" width="108" height="8" rx="3" fill="#1d4fa0"/>
  <text x="74" y="94" text-anchor="middle" font-size="11" font-weight="800" fill="#17202e">Sendungs-</text>
  <text x="74" y="109" text-anchor="middle" font-size="11" font-weight="800" fill="#17202e">details</text>
  <text x="74" y="128" text-anchor="middle" font-size="10" fill="#58677a">Menge, Gewicht</text>
  <text x="74" y="142" text-anchor="middle" font-size="10" fill="#58677a">Zielland, Ware</text>

  <!-- Arrow -->
  <line x1="130" y1="110" x2="148" y2="110" stroke="#d3dae8" stroke-width="1.5" marker-end="url(#a2)"/>

  <!-- Step 2 -->
  <rect x="150" y="60" width="108" height="100" rx="6" fill="#ffffff" stroke="#d3dae8" stroke-width="1.5"/>
  <rect x="150" y="60" width="108" height="8" rx="3" fill="#1d4fa0"/>
  <text x="204" y="94" text-anchor="middle" font-size="11" font-weight="800" fill="#17202e">Speditions-</text>
  <text x="204" y="109" text-anchor="middle" font-size="11" font-weight="800" fill="#17202e">koordination</text>
  <text x="204" y="128" text-anchor="middle" font-size="10" fill="#58677a">Abholung buchen</text>
  <text x="204" y="142" text-anchor="middle" font-size="10" fill="#58677a">CargoX</text>

  <!-- Arrow -->
  <line x1="260" y1="110" x2="278" y2="110" stroke="#d3dae8" stroke-width="1.5" marker-end="url(#a2)"/>

  <!-- Step 3 -->
  <rect x="280" y="60" width="108" height="100" rx="6" fill="#ffffff" stroke="#d3dae8" stroke-width="1.5"/>
  <rect x="280" y="60" width="108" height="8" rx="3" fill="#1d4fa0"/>
  <text x="334" y="94" text-anchor="middle" font-size="11" font-weight="800" fill="#17202e">Dokumente</text>
  <text x="334" y="128" text-anchor="middle" font-size="10" fill="#58677a">Ursprungszeugnis</text>
  <text x="334" y="142" text-anchor="middle" font-size="10" fill="#58677a">Begleitpapiere</text>

  <!-- Arrow -->
  <line x1="390" y1="110" x2="408" y2="110" stroke="#d3dae8" stroke-width="1.5" marker-end="url(#a2)"/>

  <!-- Step 4: ABD / IAAP – highlighted -->
  <rect x="410" y="52" width="116" height="116" rx="6" fill="#edf2fa" stroke="#1d4fa0" stroke-width="2"/>
  <rect x="410" y="52" width="116" height="8" rx="3" fill="#1d4fa0"/>
  <text x="468" y="85" text-anchor="middle" font-size="11" font-weight="800" fill="#17202e">ABD via IAAP</text>
  <text x="468" y="103" text-anchor="middle" font-size="10" fill="#58677a">Zollanmeldung</text>
  <text x="468" y="117" text-anchor="middle" font-size="10" fill="#58677a">→ eigene Software</text>
  <text x="468" y="131" text-anchor="middle" font-size="10" fill="#1d4fa0" font-weight="700">in Entwicklung</text>
  <text x="468" y="153" text-anchor="middle" font-size="9" fill="#58677a">(ABD-Software)</text>

  <!-- Arrow -->
  <line x1="528" y1="110" x2="546" y2="110" stroke="#d3dae8" stroke-width="1.5" marker-end="url(#a2)"/>

  <!-- Step 5 -->
  <rect x="548" y="60" width="100" height="100" rx="6" fill="#ffffff" stroke="#d3dae8" stroke-width="1.5"/>
  <rect x="548" y="60" width="100" height="8" rx="3" fill="#1d4fa0"/>
  <text x="598" y="94" text-anchor="middle" font-size="11" font-weight="800" fill="#17202e">Verpackung</text>
  <text x="598" y="128" text-anchor="middle" font-size="10" fill="#58677a">Großsendungen</text>
  <text x="598" y="142" text-anchor="middle" font-size="10" fill="#58677a">physisch vorbereiten</text>

  <!-- Arrow -->
  <line x1="650" y1="110" x2="668" y2="110" stroke="#d3dae8" stroke-width="1.5" marker-end="url(#a2)"/>

  <!-- Step 6 -->
  <rect x="670" y="60" width="76" height="100" rx="6" fill="#0c1e48"/>
  <text x="708" y="99" text-anchor="middle" font-size="11" font-weight="700" fill="#ffffff">Doku-</text>
  <text x="708" y="114" text-anchor="middle" font-size="11" font-weight="700" fill="#ffffff">mentation</text>
  <text x="708" y="134" text-anchor="middle" font-size="10" fill="#edf2fa">Excel-Liste</text>
  <text x="708" y="148" text-anchor="middle" font-size="10" fill="#edf2fa">Ablage</text>

  <!-- Caption -->
  <text x="380" y="196" text-anchor="middle" font-size="10.5" fill="#58677a">Anonymisierter Prozessablauf · Keine echten Kunden- oder Sendungsdaten</text>
  <text x="380" y="212" text-anchor="middle" font-size="10" fill="#1d4fa0">Die ABD-Arbeit in Schritt 4 führte direkt zur Entwicklung der eigenen ABD-Software (Case 01)</text>

  <defs>
    <marker id="a2" markerWidth="8" markerHeight="8" refX="5" refY="4" orient="auto">
      <path d="M1,1 L7,4 L1,7" stroke="#d3dae8" stroke-width="1" fill="none"/>
    </marker>
  </defs>
</svg>
