<svg viewBox="0 0 760 260" xmlns="http://www.w3.org/2000/svg" font-family="Inter, ui-sans-serif, system-ui, sans-serif">
  <rect width="760" height="260" fill="#f6f8fb"/>

  <!-- Title -->
  <text x="380" y="34" text-anchor="middle" font-size="13" font-weight="800" fill="#0c1e48" letter-spacing="0.06em">MESSEPROJEKTE · ÜBERBLICK</text>

  <!-- Timeline -->
  <line x1="60" y1="110" x2="700" y2="110" stroke="#d3dae8" stroke-width="2"/>

  <!-- Techtextil -->
  <circle cx="160" cy="110" r="12" fill="#1d4fa0"/>
  <text x="160" y="85" text-anchor="middle" font-size="11" font-weight="800" fill="#1d4fa0">2026</text>
  <rect x="88" y="132" width="144" height="90" rx="6" fill="#ffffff" stroke="#1d4fa0" stroke-width="1.5"/>
  <text x="160" y="154" text-anchor="middle" font-size="12" font-weight="800" fill="#0c1e48">Techtextil</text>
  <text x="160" y="170" text-anchor="middle" font-size="10.5" fill="#58677a">Frankfurt · International</text>
  <text x="160" y="186" text-anchor="middle" font-size="10.5" fill="#58677a">Flyer, Visitenkarten</text>
  <text x="160" y="202" text-anchor="middle" font-size="10.5" fill="#58677a">Social Media</text>
  <rect x="100" y="210" width="120" height="5" rx="2" fill="#1d4fa0" opacity="0.4"/>
  <text x="160" y="228" text-anchor="middle" font-size="10" font-weight="700" fill="#1d4fa0">✓ besucht</text>

  <!-- Middle section: Vorbereitungsphase -->
  <rect x="310" y="92" width="140" height="36" rx="6" fill="#edf2fa" stroke="#d3dae8" stroke-width="1"/>
  <text x="380" y="106" text-anchor="middle" font-size="10.5" font-weight="700" fill="#58677a">Vorbereitung</text>
  <text x="380" y="120" text-anchor="middle" font-size="10" fill="#58677a">aus Deutschland</text>

  <!-- NASTEX -->
  <circle cx="600" cy="110" r="12" fill="#8b5e18" opacity="0.9"/>
  <text x="600" y="85" text-anchor="middle" font-size="11" font-weight="800" fill="#8b5e18">Juli 2026</text>
  <rect x="528" y="132" width="144" height="90" rx="6" fill="#ffffff" stroke="#8b5e18" stroke-width="1.5" stroke-dasharray="5,3"/>
  <text x="600" y="154" text-anchor="middle" font-size="12" font-weight="800" fill="#0c1e48">NASTEX</text>
  <text x="600" y="170" text-anchor="middle" font-size="10.5" fill="#58677a">Syrien · International</text>
  <text x="600" y="186" text-anchor="middle" font-size="10.5" fill="#58677a">Flyer, Standplan</text>
  <text x="600" y="202" text-anchor="middle" font-size="10.5" fill="#58677a">Koordination DE ↔ SY</text>
  <text x="600" y="228" text-anchor="middle" font-size="10" font-weight="700" fill="#8b5e18">→ geplant</text>

  <!-- Legend -->
  <rect x="20" y="242" width="10" height="10" rx="2" fill="#1d4fa0"/>
  <text x="35" y="252" font-size="10" fill="#58677a">abgeschlossen</text>
  <rect x="130" y="242" width="10" height="10" rx="2" fill="#8b5e18" opacity="0.9"/>
  <text x="145" y="252" font-size="10" fill="#58677a">geplant · Update folgt nach Juli 2026</text>
</svg>
