<svg viewBox="0 0 760 300" xmlns="http://www.w3.org/2000/svg" font-family="Inter, ui-sans-serif, system-ui, sans-serif">
  <rect width="760" height="300" fill="#f6f8fb"/>

  <!-- Title -->
  <text x="380" y="34" text-anchor="middle" font-size="13" font-weight="800" fill="#0c1e48" letter-spacing="0.06em">ODOO · RECHNUNGSPROZESSE</text>

  <!-- Left: Eingangsrechnung -->
  <text x="190" y="60" text-anchor="middle" font-size="11" font-weight="800" fill="#1d4fa0" letter-spacing="0.04em">EINGANGSRECHNUNG</text>

  <rect x="40" y="72" width="140" height="44" rx="6" fill="#ffffff" stroke="#d3dae8" stroke-width="1.5"/>
  <text x="110" y="90" text-anchor="middle" font-size="11" font-weight="700" fill="#17202e">Rechnung eingeht</text>
  <text x="110" y="106" text-anchor="middle" font-size="10.5" fill="#58677a">per E-Mail / Post</text>

  <line x1="110" y1="116" x2="110" y2="136" stroke="#d3dae8" stroke-width="1.5" marker-end="url(#a3)"/>

  <rect x="40" y="140" width="140" height="44" rx="6" fill="#ffffff" stroke="#d3dae8" stroke-width="1.5"/>
  <text x="110" y="158" text-anchor="middle" font-size="11" font-weight="700" fill="#17202e">Prüfung</text>
  <text x="110" y="174" text-anchor="middle" font-size="10.5" fill="#58677a">Richtigkeit, Vollständigkeit</text>

  <line x1="110" y1="184" x2="110" y2="204" stroke="#d3dae8" stroke-width="1.5" marker-end="url(#a3)"/>

  <rect x="40" y="208" width="140" height="44" rx="6" fill="#edf2fa" stroke="#1d4fa0" stroke-width="1.5"/>
  <text x="110" y="226" text-anchor="middle" font-size="11" font-weight="700" fill="#0c1e48">Odoo-Erfassung</text>
  <text x="110" y="242" text-anchor="middle" font-size="10.5" fill="#1d4fa0">Buchung im System</text>

  <line x1="110" y1="252" x2="110" y2="272" stroke="#d3dae8" stroke-width="1.5" marker-end="url(#a3)"/>

  <rect x="40" y="276" width="140" height="16" rx="4" fill="#0c1e48"/>
  <text x="110" y="288" text-anchor="middle" font-size="10" font-weight="700" fill="#ffffff">Ablage &amp; Dokumentation</text>

  <!-- Divider -->
  <line x1="380" y1="54" x2="380" y2="296" stroke="#d3dae8" stroke-width="1" stroke-dasharray="4,3"/>

  <!-- Right: Ausgangsrechnung -->
  <text x="570" y="60" text-anchor="middle" font-size="11" font-weight="800" fill="#2662b8" letter-spacing="0.04em">AUSGANGSRECHNUNG</text>

  <rect x="500" y="72" width="140" height="44" rx="6" fill="#ffffff" stroke="#d3dae8" stroke-width="1.5"/>
  <text x="570" y="90" text-anchor="middle" font-size="11" font-weight="700" fill="#17202e">Auftrag / Bedarf</text>
  <text x="570" y="106" text-anchor="middle" font-size="10.5" fill="#58677a">Kunde oder intern</text>

  <line x1="570" y1="116" x2="570" y2="136" stroke="#d3dae8" stroke-width="1.5" marker-end="url(#a3)"/>

  <rect x="500" y="140" width="140" height="44" rx="6" fill="#ffffff" stroke="#d3dae8" stroke-width="1.5"/>
  <text x="570" y="158" text-anchor="middle" font-size="11" font-weight="700" fill="#17202e">Odoo-Erstellung</text>
  <text x="570" y="174" text-anchor="middle" font-size="10.5" fill="#58677a">Felder, Positionen</text>

  <line x1="570" y1="184" x2="570" y2="204" stroke="#d3dae8" stroke-width="1.5" marker-end="url(#a3)"/>

  <rect x="500" y="208" width="140" height="44" rx="6" fill="#edf2fa" stroke="#2662b8" stroke-width="1.5"/>
  <text x="570" y="226" text-anchor="middle" font-size="11" font-weight="700" fill="#0c1e48">Prüfung &amp; Versand</text>
  <text x="570" y="242" text-anchor="middle" font-size="10.5" fill="#2662b8">per E-Mail oder PDF</text>

  <line x1="570" y1="252" x2="570" y2="272" stroke="#d3dae8" stroke-width="1.5" marker-end="url(#a3)"/>

  <rect x="500" y="276" width="140" height="16" rx="4" fill="#0c1e48"/>
  <text x="570" y="288" text-anchor="middle" font-size="10" font-weight="700" fill="#ffffff">Ablage &amp; Dokumentation</text>

  <defs>
    <marker id="a3" markerWidth="8" markerHeight="8" refX="4" refY="4" orient="auto">
      <path d="M1,1 L7,4 L1,7" stroke="#d3dae8" stroke-width="1" fill="none"/>
    </marker>
  </defs>
</svg>
